<?xml version="1.0" encoding="utf-8"?>
<!-- Generator: Adobe Illustrator 16.0.0, SVG Export Plug-In . SVG Version: 6.00 Build 0)  -->
<!DOCTYPE svg PUBLIC "-//W3C//DTD SVG 1.1//EN" "http://www.w3.org/Graphics/SVG/1.1/DTD/svg11.dtd">
<svg version="1.1" id="Layer_1" xmlns="http://www.w3.org/2000/svg" xmlns:xlink="http://www.w3.org/1999/xlink" x="0px" y="0px"
	 width="720px" height="340px" viewBox="1057.325 396.93 720 340" enable-background="new 1057.325 396.93 720 340"
	 xml:space="preserve">
<g>
	<g>
		<path fill="#CA1932" d="M1311.824,461.43h211.002v211.001h-211.002V461.43z"/>
		<g>
			<path fill="#FFFFFF" d="M1329.76,527.895v-4.268h15.591v4.268h-4.407l5.532,19.75l6.702-23.97h7.015l6.774,24.26l5.412-20.04
				h-4.639v-4.22h40.676v10.972h-3.517c-0.905-3.273-1.241-6.752-5.861-6.752h-7.736v10.058h9.612c0.854,1.324,0.785,3.603,0,4.76
				h-9.612v10.292h8.761c3.683,0,4.458-3.519,5.306-7.244h3.517v11.558h-28.837v-4.313h4.103v-25.109h-6.531l-8.428,29.422h-6.727
				l-6.775-24.219l-6.918,24.219h-6.775l-8.417-29.422H1329.76z"/>
			<path fill="#FFFFFF" d="M1412.346,527.895v-4.22h15.84v4.22h-4.581v25.109h7.107c3.684,0,4.458-3.519,5.307-7.244h3.516v11.558
				h-27.183v-4.313h4.103v-25.109H1412.346z"/>
			<path fill="#FFFFFF" d="M1442.534,527.895v-4.22h15.841v4.22h-4.581v25.109h7.106c3.685,0,4.459-3.519,5.307-7.244h3.517v11.558
				h-27.183v-4.313h4.103v-25.109H1442.534z"/>
			<path fill="#FFFFFF" d="M1335.041,574.433v4.22h4.071v25.18h-4.103v4.243h16.202v-4.243h-4.949v-9.706h9.91
				c0.786-1.156,0.854-3.437,0-4.76h-9.91v-10.714h8.327c4.62,0,4.956,3.479,5.862,6.752h3.517v-10.972H1335.041z M1374.283,574.433
				l-11.739,29.399h-3.362v4.243h12.848v-4.243h-4.059l2.23-5.909h12.292l2.196,5.909h-3.867v4.243h30.173v-4.243h-4.525V593.75
				h2.885c5.263,0,6.779,2.43,7.144,7.378c0.431,4.883,2.134,7.385,7.814,7.385c1.643,0,3.512-0.205,3.512-0.205
				c0.444-1.063,0.755-2.463-0.022-4.001c-3.775,0.406-3.883-2.291-4.062-5.21c-0.181-4.692-2.898-6.853-6.854-7.217
				c5.19-0.104,9.029-3.741,9.029-8.341c0-5.997-5.169-9.106-11.168-9.106h-19.622v4.337h4.148v25.062h-6.533l-12.06-29.399
				H1374.283z M1406.47,578.77h4.995c4.772,0,7.066,1.605,7.066,5.392c0,3.813-3.332,5.275-6.343,5.275h-5.717V578.77z
				 M1376.321,581.304l4.665,12.541h-9.331L1376.321,581.304z"/>
			<path fill="#FFFFFF" d="M1472.889,555.112v-9.446h3.6c1.174,5.326,3.523,8.154,9.788,8.154c4.22,0,6.92-1.369,6.92-4.824
				c0-8.612-20.329-1.897-20.329-15.986c0-6.333,5.37-10.342,13.503-10.342c6.986,0,12.237,2.999,12.237,2.999v8.37h-3.582
				c-0.895-5.081-3.624-6.966-8.353-6.966c-4.12,0-6.606,1.816-6.606,4.573c0,8.18,20.396,1.616,20.396,16.254
				c0,4.688-3.148,10.32-13.691,10.32C1477.771,558.219,1472.889,555.112,1472.889,555.112L1472.889,555.112z"/>
			<path fill="#FFFFFF" d="M1447.52,609.113c-11.298,0-17.734-7.663-17.734-17.688c0-9.694,6.017-18.032,17.864-18.032
				c6.974,0,12.649,3.05,12.649,3.05v8.586h-3.587c-1.36-3.813-3.352-7.139-8.865-7.139c-7.462,0-10.019,6.307-10.019,13.479
				c0,7.563,3.117,13.319,10.502,13.319c3.02,0,5.568-1.186,5.568-1.186v-8.3h-5.733c-0.802-1.848-0.572-3.608,0-4.735h12.885
				v14.915C1461.05,605.384,1454.923,609.113,1447.52,609.113L1447.52,609.113z"/>
			<path fill="#FFFFFF" d="M1483.733,573.407c-10.085,0-17.885,6.831-17.885,17.994c0,10.648,7.708,17.721,17.839,17.721
				c10.781,0,17.899-7.72,17.899-17.816C1501.587,580.472,1493.719,573.407,1483.733,573.407z M1483.614,577.928
				c6.275,0,9.991,4.661,9.991,13.295c0,8.527-3.452,13.406-9.87,13.406c-6.602,0-9.93-5.135-9.93-13.216
				C1473.806,583.517,1476.769,577.928,1483.614,577.928z"/>
		</g>
	</g>
</g>
</svg>
